<?xml version="1.0" standalone="no"?>
<!DOCTYPE svg PUBLIC "-//W3C//DTD SVG 20010904//EN"
 "http://www.w3.org/TR/2001/REC-SVG-20010904/DTD/svg10.dtd">
<svg version="1.0" xmlns="http://www.w3.org/2000/svg"
 width="257.000000pt" height="257.000000pt" viewBox="0 0 257.000000 257.000000"
 preserveAspectRatio="xMidYMid meet">
<metadata>
Created by potrace 1.11, written by Peter Selinger 2001-2013
</metadata>
<g transform="translate(0.000000,257.000000) scale(0.100000,-0.100000)"
fill="#000000" stroke="none">
<path d="M164 2562 l-21 -3 1 -412 1 -412 481 -1 481 -1 188 316 c104 174 210
352 236 396 54 90 65 115 53 116 -33 2 -1403 3 -1420 1z"/>
<path d="M1669 2562 c-8 -1 -35 -37 -60 -80 -202 -339 -485 -816 -599 -1007
-75 -126 -224 -376 -330 -555 -106 -179 -269 -453 -362 -608 -93 -156 -167
-286 -164 -289 3 -3 135 -6 293 -5 373 0 355 0 350 15 -2 6 6 28 18 47 12 19
79 134 150 255 70 121 129 221 130 223 6 7 587 4 593 -3 4 -3 7 -129 7 -278
l0 -272 298 0 c193 0 297 3 298 10 1 22 0 848 -1 1673 l-3 872 -26 1 c-104 2
-580 3 -592 1z m26 -1209 l0 -248 -146 0 -146 0 65 110 c35 60 100 172 144
248 44 75 81 137 82 137 1 0 1 -111 1 -247z"/>
<path d="M142 1590 c1 -33 5 -40 22 -41 12 0 203 -1 425 -1 l405 -1 23 34 c13
18 23 37 23 41 0 4 -202 8 -450 8 l-450 0 2 -40z"/>
<path d="M2349 1011 c-6 -63 -5 -66 37 -69 l40 -3 -1 38 c-1 36 -2 38 -38 41
-21 2 -37 -1 -38 -7z"/>
<path d="M2353 827 c-4 -6 -7 -725 -4 -807 1 -11 11 -16 36 -16 19 0 36 3 36
6 1 3 2 188 3 412 l1 406 -33 4 c-18 2 -36 0 -39 -5z"/>
</g>
</svg>
